# xmcd
#
# Track frame offsets:
#	182
#	14065
#	29250
#	40990
#	53515
#	63865
#	72447
#	85385
#	95692
#	110290
#
# Disc length: 1581 seconds
#
# Revision: 0
# Processed by: cddbd v1.5.2PL0 Copyright (c) Steve Scherf et al.
# Submitted via: EZCDAudioConverter 2.2.2.1
#
DISCID=82062b0a
DTITLE=Los Sonny´S - El Bueno, El Malo Y El Feo
DYEAR=1992
DGENRE=
TTITLE0=Morricone - El Bueno, El Malo Y El Feo
TTITLE1=D.R. - The Bonthy Killer
TTITLE2=Morricone - Por Un Puñado De Dólares
TTITLE3=Jerry Lervan - Apache
TTITLE4=Jay Livingstone - Ray Evans - Bonanza
TTITLE5=Frontiere - La Marca De La Horca
TTITLE6=Morricone - El Dólar Marcado
TTITLE7=Morricone - Por Unos Dólares Más
TTITLE8=D.R. - Arizona Colt
TTITLE9=David Rose - El Gran Chaparral
EXTD=
EXTT0=
EXTT1=
EXTT2=
EXTT3=
EXTT4=
EXTT5=
EXTT6=
EXTT7=
EXTT8=
EXTT9=
PLAYORDER=
